# xmcd CD database file
#
# Track frame offsets:
#	150
#	19747
#	34378
#	46109
#	56946
#	69490
#	84130
#	95384
#	108847
#	118572
#	135022
#	145019
#
# Disc length: 2160 seconds
#
# Revision: 1
# Processed by: cddbd v1.5.2PL0 Copyright (c) Steve Scherf et al.
# Submitted via: CDex 1.70beta2
#
DISCID=91086e0c
DTITLE=James Segrest - Gettin' Feelin' No Pain
DYEAR=1900
DGENRE=Country
TTITLE0=Gettin' Feelin' No Pain
TTITLE1=I'm Just Out Of Your Mind
TTITLE2=Keep On Rockin'
TTITLE3=Stay A While
TTITLE4=These Empty Arms
TTITLE5=Mathilda
TTITLE6=Your Shoulders
TTITLE7=Hell Yes, I Cheated
TTITLE8=I Need Someone to Hold
TTITLE9=One Hell Of A Ride
TTITLE10=Where Do We Go From Here
TTITLE11=My Old Friend
EXTD=
EXTT0=
EXTT1=
EXTT2=
EXTT3=
EXTT4=
EXTT5=
EXTT6=
EXTT7=
EXTT8=
EXTT9=
EXTT10=
EXTT11=
PLAYORDER=
